<svg id="favicon" width="32" height="32" viewBox="0 0 32 32" fill="none" xmlns="http://www.w3.org/2000/svg">
  <!-- Main background circle with gradient -->
  <circle cx="16" cy="16" r="15" fill="url(#gradient1)" stroke="url(#gradient2)" stroke-width="1"/>
  
  <!-- Central microphone icon -->
  <g transform="translate(16, 16)">
    <!-- Microphone body -->
    <rect x="-2" y="-6" width="4" height="8" rx="2" fill="#ffffff" opacity="0.9"/>
    
    <!-- Microphone grille lines -->
    <rect x="-1.5" y="-4.5" width="3" height="0.5" rx="0.25" fill="#E5E7EB"/>
    <rect x="-1.5" y="-3" width="3" height="0.5" rx="0.25" fill="#E5E7EB"/>
    <rect x="-1.5" y="-1.5" width="3" height="0.5" rx="0.25" fill="#E5E7EB"/>
    <rect x="-1.5" y="0" width="3" height="0.5" rx="0.25" fill="#E5E7EB"/>
    
    <!-- Microphone stand -->
    <rect x="-0.5" y="2" width="1" height="4" fill="#ffffff" opacity="0.9"/>
    
    <!-- Microphone base -->
    <ellipse cx="0" cy="6.5" rx="2.5" ry="0.8" fill="#ffffff" opacity="0.9"/>
    
    <!-- Sound waves -->
    <g opacity="0.7">
      <!-- Left wave -->
      <path d="M-6 -2 Q-8 0 -6 2" stroke="#ffffff" stroke-width="1" fill="none"/>
      <path d="M-8 -3 Q-11 0 -8 3" stroke="#ffffff" stroke-width="0.8" fill="none"/>
      
      <!-- Right wave -->
      <path d="M6 -2 Q8 0 6 2" stroke="#ffffff" stroke-width="1" fill="none"/>
      <path d="M8 -3 Q11 0 8 3" stroke="#ffffff" stroke-width="0.8" fill="none"/>
    </g>
    
    <!-- AI indicator dots -->
    <g transform="translate(0, -10)">
      <circle cx="-2" cy="0" r="0.8" fill="#10B981" opacity="0.8"/>
      <circle cx="0" cy="0" r="0.8" fill="#3B82F6" opacity="0.8"/>
      <circle cx="2" cy="0" r="0.8" fill="#8B5CF6" opacity="0.8"/>
    </g>
  </g>
  
  <!-- Gradient definitions -->
  <defs>
    <linearGradient id="gradient1" x1="0%" y1="0%" x2="100%" y2="100%">
      <stop offset="0%" style="stop-color:#3B82F6;stop-opacity:1" />
      <stop offset="30%" style="stop-color:#8B5CF6;stop-opacity:1" />
      <stop offset="70%" style="stop-color:#EC4899;stop-opacity:1" />
      <stop offset="100%" style="stop-color:#10B981;stop-opacity:1" />
    </linearGradient>
    <linearGradient id="gradient2" x1="0%" y1="0%" x2="100%" y2="100%">
      <stop offset="0%" style="stop-color:#1E40AF;stop-opacity:1" />
      <stop offset="100%" style="stop-color:#059669;stop-opacity:1" />
    </linearGradient>
  </defs>
</svg>
